<svg xmlns="http://www.w3.org/2000/svg" viewBox="0 0 1200 392" width="1200" height="392" role="img" aria-label="GitHub activity: 1292 contributions in the last year">
  <title>GitHub activity</title>
  <defs>
    <linearGradient id="sbg" x1="0" y1="0" x2="1" y2="1">
      <stop offset="0%" stop-color="#070B14"/><stop offset="100%" stop-color="#05070E"/>
    </linearGradient>
    <linearGradient id="srule" x1="0" y1="0" x2="1" y2="0">
      <stop offset="0%" stop-color="#00F2FE" stop-opacity="0"/>
      <stop offset="50%" stop-color="#00F2FE" stop-opacity="0.8"/>
      <stop offset="100%" stop-color="#00F2FE" stop-opacity="0"/>
    </linearGradient>
    <clipPath id="sclip"><rect width="1200" height="392" rx="18"/></clipPath>
  </defs>

  <g clip-path="url(#sclip)">
    <rect width="1200" height="392" fill="url(#sbg)"/>
    <rect x="200" y="0" width="800" height="2" fill="url(#srule)"/>

    <g transform="translate(32.0 34)" opacity="0">
      <animate attributeName="opacity" from="0" to="1" dur="0.5s" begin="0.10s" fill="freeze"/>
      <rect width="276.0" height="96" rx="14" fill="#0A101C" stroke="#00F2FE" stroke-opacity="0.28"/>
      <rect x="18" y="20" width="3" height="56" rx="1.5" fill="#00F2FE" opacity="0.75"/>
      <text x="36" y="56" font-family="-apple-system, BlinkMacSystemFont, 'Segoe UI', Roboto, Helvetica, Arial, sans-serif" font-size="34" font-weight="800" fill="#F1F5F9">1,292</text>
      <text x="36" y="78" font-family="ui-monospace, SFMono-Regular, Menlo, Consolas, monospace" font-size="10.5" letter-spacing="1.5" fill="#00F2FE" fill-opacity="0.9">CONTRIBUTIONS / YEAR</text>
      <circle cx="252.0" cy="24" r="3.5" fill="#00F2FE">
        <animate attributeName="opacity" values="1;0.25;1" dur="2.0s" repeatCount="indefinite"/>
      </circle>
    </g>
    <g transform="translate(320.0 34)" opacity="0">
      <animate attributeName="opacity" from="0" to="1" dur="0.5s" begin="0.22s" fill="freeze"/>
      <rect width="276.0" height="96" rx="14" fill="#0A101C" stroke="#7C4DFF" stroke-opacity="0.28"/>
      <rect x="18" y="20" width="3" height="56" rx="1.5" fill="#7C4DFF" opacity="0.75"/>
      <text x="36" y="56" font-family="-apple-system, BlinkMacSystemFont, 'Segoe UI', Roboto, Helvetica, Arial, sans-serif" font-size="34" font-weight="800" fill="#F1F5F9">5</text>
      <text x="36" y="78" font-family="ui-monospace, SFMono-Regular, Menlo, Consolas, monospace" font-size="10.5" letter-spacing="1.5" fill="#7C4DFF" fill-opacity="0.9">CURRENT STREAK (DAYS)</text>
      <circle cx="252.0" cy="24" r="3.5" fill="#7C4DFF">
        <animate attributeName="opacity" values="1;0.25;1" dur="2.3s" repeatCount="indefinite"/>
      </circle>
    </g>
    <g transform="translate(608.0 34)" opacity="0">
      <animate attributeName="opacity" from="0" to="1" dur="0.5s" begin="0.34s" fill="freeze"/>
      <rect width="276.0" height="96" rx="14" fill="#0A101C" stroke="#34D399" stroke-opacity="0.28"/>
      <rect x="18" y="20" width="3" height="56" rx="1.5" fill="#34D399" opacity="0.75"/>
      <text x="36" y="56" font-family="-apple-system, BlinkMacSystemFont, 'Segoe UI', Roboto, Helvetica, Arial, sans-serif" font-size="34" font-weight="800" fill="#F1F5F9">18</text>
      <text x="36" y="78" font-family="ui-monospace, SFMono-Regular, Menlo, Consolas, monospace" font-size="10.5" letter-spacing="1.5" fill="#34D399" fill-opacity="0.9">LONGEST STREAK (DAYS)</text>
      <circle cx="252.0" cy="24" r="3.5" fill="#34D399">
        <animate attributeName="opacity" values="1;0.25;1" dur="2.6s" repeatCount="indefinite"/>
      </circle>
    </g>
    <g transform="translate(896.0 34)" opacity="0">
      <animate attributeName="opacity" from="0" to="1" dur="0.5s" begin="0.46s" fill="freeze"/>
      <rect width="276.0" height="96" rx="14" fill="#0A101C" stroke="#FBBF24" stroke-opacity="0.28"/>
      <rect x="18" y="20" width="3" height="56" rx="1.5" fill="#FBBF24" opacity="0.75"/>
      <text x="36" y="56" font-family="-apple-system, BlinkMacSystemFont, 'Segoe UI', Roboto, Helvetica, Arial, sans-serif" font-size="34" font-weight="800" fill="#F1F5F9">108</text>
      <text x="36" y="78" font-family="ui-monospace, SFMono-Regular, Menlo, Consolas, monospace" font-size="10.5" letter-spacing="1.5" fill="#FBBF24" fill-opacity="0.9">ACTIVE DAYS / YEAR</text>
      <circle cx="252.0" cy="24" r="3.5" fill="#FBBF24">
        <animate attributeName="opacity" values="1;0.25;1" dur="2.9s" repeatCount="indefinite"/>
      </circle>
    </g>

    <rect x="32" y="152" width="1136" height="1" fill="#16223A"/>
    <text x="32" y="176" font-family="ui-monospace, SFMono-Regular, Menlo, Consolas, monospace" font-size="11.5" letter-spacing="2" fill="#5B6C86">CONTRIBUTION ACTIVITY &#183; AUG 2025 &#8594; AUG 2026</text>

    <g transform="translate(167.1 214)">
      <text x="32.8" y="-10" font-family="ui-monospace, SFMono-Regular, Menlo, Consolas, monospace" font-size="10.5" letter-spacing="1.2" fill="#4C5B72">SEP</text><text x="98.4" y="-10" font-family="ui-monospace, SFMono-Regular, Menlo, Consolas, monospace" font-size="10.5" letter-spacing="1.2" fill="#4C5B72">OCT</text><text x="164.0" y="-10" font-family="ui-monospace, SFMono-Regular, Menlo, Consolas, monospace" font-size="10.5" letter-spacing="1.2" fill="#4C5B72">NOV</text><text x="246.0" y="-10" font-family="ui-monospace, SFMono-Regular, Menlo, Consolas, monospace" font-size="10.5" letter-spacing="1.2" fill="#4C5B72">DEC</text><text x="311.6" y="-10" font-family="ui-monospace, SFMono-Regular, Menlo, Consolas, monospace" font-size="10.5" letter-spacing="1.2" fill="#4C5B72">JAN</text><text x="377.2" y="-10" font-family="ui-monospace, SFMono-Regular, Menlo, Consolas, monospace" font-size="10.5" letter-spacing="1.2" fill="#4C5B72">FEB</text><text x="442.8" y="-10" font-family="ui-monospace, SFMono-Regular, Menlo, Consolas, monospace" font-size="10.5" letter-spacing="1.2" fill="#4C5B72">MAR</text><text x="524.8" y="-10" font-family="ui-monospace, SFMono-Regular, Menlo, Consolas, monospace" font-size="10.5" letter-spacing="1.2" fill="#4C5B72">APR</text><text x="590.4" y="-10" font-family="ui-monospace, SFMono-Regular, Menlo, Consolas, monospace" font-size="10.5" letter-spacing="1.2" fill="#4C5B72">MAY</text><text x="672.4" y="-10" font-family="ui-monospace, SFMono-Regular, Menlo, Consolas, monospace" font-size="10.5" letter-spacing="1.2" fill="#4C5B72">JUN</text><text x="738.0" y="-10" font-family="ui-monospace, SFMono-Regular, Menlo, Consolas, monospace" font-size="10.5" letter-spacing="1.2" fill="#4C5B72">JUL</text><text x="803.6" y="-10" font-family="ui-monospace, SFMono-Regular, Menlo, Consolas, monospace" font-size="10.5" letter-spacing="1.2" fill="#4C5B72">AUG</text>
      <g transform="translate(0.0 0)" opacity="0"><animate attributeName="opacity" from="0" to="1" dur="0.45s" begin="0.55s" fill="freeze"/><rect y="0.0" width="13" height="13" rx="3" fill="#0E1726"></rect><rect y="16.4" width="13" height="13" rx="3" fill="#0E1726"></rect><rect y="32.8" width="13" height="13" rx="3" fill="#0E1726"></rect><rect y="49.2" width="13" height="13" rx="3" fill="#0E1726"></rect><rect y="65.6" width="13" height="13" rx="3" fill="#0E1726"></rect><rect y="82.0" width="13" height="13" rx="3" fill="#0E1726"></rect><rect y="98.4" width="13" height="13" rx="3" fill="#0E1726"></rect></g><g transform="translate(16.4 0)" opacity="0"><animate attributeName="opacity" from="0" to="1" dur="0.45s" begin="0.56s" fill="freeze"/><rect y="0.0" width="13" height="13" rx="3" fill="#0E1726"></rect><rect y="16.4" width="13" height="13" rx="3" fill="#0E1726"></rect><rect y="32.8" width="13" height="13" rx="3" fill="#0E1726"></rect><rect y="49.2" width="13" height="13" rx="3" fill="#0E1726"></rect><rect y="65.6" width="13" height="13" rx="3" fill="#0D5A6E"></rect><rect y="82.0" width="13" height="13" rx="3" fill="#0E1726"></rect><rect y="98.4" width="13" height="13" rx="3" fill="#0E1726"></rect></g><g transform="translate(32.8 0)" opacity="0"><animate attributeName="opacity" from="0" to="1" dur="0.45s" begin="0.58s" fill="freeze"/><rect y="0.0" width="13" height="13" rx="3" fill="#0E1726"></rect><rect y="16.4" width="13" height="13" rx="3" fill="#0E1726"></rect><rect y="32.8" width="13" height="13" rx="3" fill="#0E1726"></rect><rect y="49.2" width="13" height="13" rx="3" fill="#0E1726"></rect><rect y="65.6" width="13" height="13" rx="3" fill="#0E1726"></rect><rect y="82.0" width="13" height="13" rx="3" fill="#0E1726"></rect><rect y="98.4" width="13" height="13" rx="3" fill="#0E1726"></rect></g><g transform="translate(49.2 0)" opacity="0"><animate attributeName="opacity" from="0" to="1" dur="0.45s" begin="0.59s" fill="freeze"/><rect y="0.0" width="13" height="13" rx="3" fill="#0E1726"></rect><rect y="16.4" width="13" height="13" rx="3" fill="#0E1726"></rect><rect y="32.8" width="13" height="13" rx="3" fill="#0E1726"></rect><rect y="49.2" width="13" height="13" rx="3" fill="#0E1726"></rect><rect y="65.6" width="13" height="13" rx="3" fill="#0E1726"></rect><rect y="82.0" width="13" height="13" rx="3" fill="#0E1726"></rect><rect y="98.4" width="13" height="13" rx="3" fill="#0E1726"></rect></g><g transform="translate(65.6 0)" opacity="0"><animate attributeName="opacity" from="0" to="1" dur="0.45s" begin="0.61s" fill="freeze"/><rect y="0.0" width="13" height="13" rx="3" fill="#0E1726"></rect><rect y="16.4" width="13" height="13" rx="3" fill="#0E1726"></rect><rect y="32.8" width="13" height="13" rx="3" fill="#0E1726"></rect><rect y="49.2" width="13" height="13" rx="3" fill="#0E1726"></rect><rect y="65.6" width="13" height="13" rx="3" fill="#0E1726"></rect><rect y="82.0" width="13" height="13" rx="3" fill="#0E1726"></rect><rect y="98.4" width="13" height="13" rx="3" fill="#0E1726"></rect></g><g transform="translate(82.0 0)" opacity="0"><animate attributeName="opacity" from="0" to="1" dur="0.45s" begin="0.62s" fill="freeze"/><rect y="0.0" width="13" height="13" rx="3" fill="#0E1726"></rect><rect y="16.4" width="13" height="13" rx="3" fill="#0E1726"></rect><rect y="32.8" width="13" height="13" rx="3" fill="#0E1726"></rect><rect y="49.2" width="13" height="13" rx="3" fill="#0E1726"></rect><rect y="65.6" width="13" height="13" rx="3" fill="#0E1726"></rect><rect y="82.0" width="13" height="13" rx="3" fill="#0E1726"></rect><rect y="98.4" width="13" height="13" rx="3" fill="#0E1726"></rect></g><g transform="translate(98.4 0)" opacity="0"><animate attributeName="opacity" from="0" to="1" dur="0.45s" begin="0.63s" fill="freeze"/><rect y="0.0" width="13" height="13" rx="3" fill="#0E1726"></rect><rect y="16.4" width="13" height="13" rx="3" fill="#0E1726"></rect><rect y="32.8" width="13" height="13" rx="3" fill="#0E1726"></rect><rect y="49.2" width="13" height="13" rx="3" fill="#0E1726"></rect><rect y="65.6" width="13" height="13" rx="3" fill="#0E1726"></rect><rect y="82.0" width="13" height="13" rx="3" fill="#0E1726"></rect><rect y="98.4" width="13" height="13" rx="3" fill="#0E1726"></rect></g><g transform="translate(114.8 0)" opacity="0"><animate attributeName="opacity" from="0" to="1" dur="0.45s" begin="0.65s" fill="freeze"/><rect y="0.0" width="13" height="13" rx="3" fill="#0E1726"></rect><rect y="16.4" width="13" height="13" rx="3" fill="#0E1726"></rect><rect y="32.8" width="13" height="13" rx="3" fill="#0E1726"></rect><rect y="49.2" width="13" height="13" rx="3" fill="#0D5A6E"></rect><rect y="65.6" width="13" height="13" rx="3" fill="#0D5A6E"></rect><rect y="82.0" width="13" height="13" rx="3" fill="#0D5A6E"></rect><rect y="98.4" width="13" height="13" rx="3" fill="#0E1726"></rect></g><g transform="translate(131.2 0)" opacity="0"><animate attributeName="opacity" from="0" to="1" dur="0.45s" begin="0.66s" fill="freeze"/><rect y="0.0" width="13" height="13" rx="3" fill="#009CB6"></rect><rect y="16.4" width="13" height="13" rx="3" fill="#0D5A6E"></rect><rect y="32.8" width="13" height="13" rx="3" fill="#0D5A6E"></rect><rect y="49.2" width="13" height="13" rx="3" fill="#009CB6"></rect><rect y="65.6" width="13" height="13" rx="3" fill="#0D5A6E"></rect><rect y="82.0" width="13" height="13" rx="3" fill="#0E1726"></rect><rect y="98.4" width="13" height="13" rx="3" fill="#0E1726"></rect></g><g transform="translate(147.6 0)" opacity="0"><animate attributeName="opacity" from="0" to="1" dur="0.45s" begin="0.68s" fill="freeze"/><rect y="0.0" width="13" height="13" rx="3" fill="#0E1726"></rect><rect y="16.4" width="13" height="13" rx="3" fill="#0E1726"></rect><rect y="32.8" width="13" height="13" rx="3" fill="#0E1726"></rect><rect y="49.2" width="13" height="13" rx="3" fill="#0E1726"></rect><rect y="65.6" width="13" height="13" rx="3" fill="#0E1726"></rect><rect y="82.0" width="13" height="13" rx="3" fill="#0E1726"></rect><rect y="98.4" width="13" height="13" rx="3" fill="#0E1726"></rect></g><g transform="translate(164.0 0)" opacity="0"><animate attributeName="opacity" from="0" to="1" dur="0.45s" begin="0.69s" fill="freeze"/><rect y="0.0" width="13" height="13" rx="3" fill="#0E1726"></rect><rect y="16.4" width="13" height="13" rx="3" fill="#0E1726"></rect><rect y="32.8" width="13" height="13" rx="3" fill="#0E1726"></rect><rect y="49.2" width="13" height="13" rx="3" fill="#0E1726"></rect><rect y="65.6" width="13" height="13" rx="3" fill="#0E1726"></rect><rect y="82.0" width="13" height="13" rx="3" fill="#0E1726"></rect><rect y="98.4" width="13" height="13" rx="3" fill="#0E1726"></rect></g><g transform="translate(180.4 0)" opacity="0"><animate attributeName="opacity" from="0" to="1" dur="0.45s" begin="0.70s" fill="freeze"/><rect y="0.0" width="13" height="13" rx="3" fill="#0E1726"></rect><rect y="16.4" width="13" height="13" rx="3" fill="#0E1726"></rect><rect y="32.8" width="13" height="13" rx="3" fill="#0E1726"></rect><rect y="49.2" width="13" height="13" rx="3" fill="#0E1726"></rect><rect y="65.6" width="13" height="13" rx="3" fill="#0E1726"></rect><rect y="82.0" width="13" height="13" rx="3" fill="#0E1726"></rect><rect y="98.4" width="13" height="13" rx="3" fill="#0D5A6E"></rect></g><g transform="translate(196.8 0)" opacity="0"><animate attributeName="opacity" from="0" to="1" dur="0.45s" begin="0.72s" fill="freeze"/><rect y="0.0" width="13" height="13" rx="3" fill="#0E1726"></rect><rect y="16.4" width="13" height="13" rx="3" fill="#0E1726"></rect><rect y="32.8" width="13" height="13" rx="3" fill="#0E1726"></rect><rect y="49.2" width="13" height="13" rx="3" fill="#0E1726"></rect><rect y="65.6" width="13" height="13" rx="3" fill="#0E1726"></rect><rect y="82.0" width="13" height="13" rx="3" fill="#0E1726"></rect><rect y="98.4" width="13" height="13" rx="3" fill="#0E1726"></rect></g><g transform="translate(213.2 0)" opacity="0"><animate attributeName="opacity" from="0" to="1" dur="0.45s" begin="0.73s" fill="freeze"/><rect y="0.0" width="13" height="13" rx="3" fill="#0E1726"></rect><rect y="16.4" width="13" height="13" rx="3" fill="#0E1726"></rect><rect y="32.8" width="13" height="13" rx="3" fill="#0E1726"></rect><rect y="49.2" width="13" height="13" rx="3" fill="#0E1726"></rect><rect y="65.6" width="13" height="13" rx="3" fill="#0E1726"></rect><rect y="82.0" width="13" height="13" rx="3" fill="#0E1726"></rect><rect y="98.4" width="13" height="13" rx="3" fill="#0E1726"></rect></g><g transform="translate(229.6 0)" opacity="0"><animate attributeName="opacity" from="0" to="1" dur="0.45s" begin="0.75s" fill="freeze"/><rect y="0.0" width="13" height="13" rx="3" fill="#0E1726"></rect><rect y="16.4" width="13" height="13" rx="3" fill="#0E1726"></rect><rect y="32.8" width="13" height="13" rx="3" fill="#0E1726"></rect><rect y="49.2" width="13" height="13" rx="3" fill="#0E1726"></rect><rect y="65.6" width="13" height="13" rx="3" fill="#0E1726"></rect><rect y="82.0" width="13" height="13" rx="3" fill="#0E1726"></rect><rect y="98.4" width="13" height="13" rx="3" fill="#0E1726"></rect></g><g transform="translate(246.0 0)" opacity="0"><animate attributeName="opacity" from="0" to="1" dur="0.45s" begin="0.76s" fill="freeze"/><rect y="0.0" width="13" height="13" rx="3" fill="#0E1726"></rect><rect y="16.4" width="13" height="13" rx="3" fill="#0E1726"></rect><rect y="32.8" width="13" height="13" rx="3" fill="#0E1726"></rect><rect y="49.2" width="13" height="13" rx="3" fill="#0E1726"></rect><rect y="65.6" width="13" height="13" rx="3" fill="#009CB6"></rect><rect y="82.0" width="13" height="13" rx="3" fill="#0D5A6E"></rect><rect y="98.4" width="13" height="13" rx="3" fill="#0D5A6E"></rect></g><g transform="translate(262.4 0)" opacity="0"><animate attributeName="opacity" from="0" to="1" dur="0.45s" begin="0.77s" fill="freeze"/><rect y="0.0" width="13" height="13" rx="3" fill="#0E1726"></rect><rect y="16.4" width="13" height="13" rx="3" fill="#0E1726"></rect><rect y="32.8" width="13" height="13" rx="3" fill="#0E1726"></rect><rect y="49.2" width="13" height="13" rx="3" fill="#0D5A6E"></rect><rect y="65.6" width="13" height="13" rx="3" fill="#0D5A6E"></rect><rect y="82.0" width="13" height="13" rx="3" fill="#00CFE8"></rect><rect y="98.4" width="13" height="13" rx="3" fill="#00CFE8"></rect></g><g transform="translate(278.8 0)" opacity="0"><animate attributeName="opacity" from="0" to="1" dur="0.45s" begin="0.79s" fill="freeze"/><rect y="0.0" width="13" height="13" rx="3" fill="#0D5A6E"></rect><rect y="16.4" width="13" height="13" rx="3" fill="#0D5A6E"></rect><rect y="32.8" width="13" height="13" rx="3" fill="#0D5A6E"></rect><rect y="49.2" width="13" height="13" rx="3" fill="#0D5A6E"></rect><rect y="65.6" width="13" height="13" rx="3" fill="#0E1726"></rect><rect y="82.0" width="13" height="13" rx="3" fill="#0E1726"></rect><rect y="98.4" width="13" height="13" rx="3" fill="#0E1726"></rect></g><g transform="translate(295.2 0)" opacity="0"><animate attributeName="opacity" from="0" to="1" dur="0.45s" begin="0.80s" fill="freeze"/><rect y="0.0" width="13" height="13" rx="3" fill="#0D5A6E"></rect><rect y="16.4" width="13" height="13" rx="3" fill="#0D5A6E"></rect><rect y="32.8" width="13" height="13" rx="3" fill="#0E1726"></rect><rect y="49.2" width="13" height="13" rx="3" fill="#0E1726"></rect><rect y="65.6" width="13" height="13" rx="3" fill="#00CFE8"></rect><rect y="82.0" width="13" height="13" rx="3" fill="#009CB6"></rect><rect y="98.4" width="13" height="13" rx="3" fill="#0D5A6E"></rect></g><g transform="translate(311.6 0)" opacity="0"><animate attributeName="opacity" from="0" to="1" dur="0.45s" begin="0.82s" fill="freeze"/><rect y="0.0" width="13" height="13" rx="3" fill="#0D5A6E"></rect><rect y="16.4" width="13" height="13" rx="3" fill="#0E1726"></rect><rect y="32.8" width="13" height="13" rx="3" fill="#0E1726"></rect><rect y="49.2" width="13" height="13" rx="3" fill="#0D5A6E"></rect><rect y="65.6" width="13" height="13" rx="3" fill="#0D5A6E"></rect><rect y="82.0" width="13" height="13" rx="3" fill="#0E1726"></rect><rect y="98.4" width="13" height="13" rx="3" fill="#0E1726"></rect></g><g transform="translate(328.0 0)" opacity="0"><animate attributeName="opacity" from="0" to="1" dur="0.45s" begin="0.83s" fill="freeze"/><rect y="0.0" width="13" height="13" rx="3" fill="#0E1726"></rect><rect y="16.4" width="13" height="13" rx="3" fill="#0E1726"></rect><rect y="32.8" width="13" height="13" rx="3" fill="#0E1726"></rect><rect y="49.2" width="13" height="13" rx="3" fill="#0E1726"></rect><rect y="65.6" width="13" height="13" rx="3" fill="#0E1726"></rect><rect y="82.0" width="13" height="13" rx="3" fill="#0E1726"></rect><rect y="98.4" width="13" height="13" rx="3" fill="#0E1726"></rect></g><g transform="translate(344.4 0)" opacity="0"><animate attributeName="opacity" from="0" to="1" dur="0.45s" begin="0.84s" fill="freeze"/><rect y="0.0" width="13" height="13" rx="3" fill="#0D5A6E"></rect><rect y="16.4" width="13" height="13" rx="3" fill="#0D5A6E"></rect><rect y="32.8" width="13" height="13" rx="3" fill="#0E1726"></rect><rect y="49.2" width="13" height="13" rx="3" fill="#0E1726"></rect><rect y="65.6" width="13" height="13" rx="3" fill="#0E1726"></rect><rect y="82.0" width="13" height="13" rx="3" fill="#0E1726"></rect><rect y="98.4" width="13" height="13" rx="3" fill="#0E1726"></rect></g><g transform="translate(360.8 0)" opacity="0"><animate attributeName="opacity" from="0" to="1" dur="0.45s" begin="0.86s" fill="freeze"/><rect y="0.0" width="13" height="13" rx="3" fill="#0E1726"></rect><rect y="16.4" width="13" height="13" rx="3" fill="#0E1726"></rect><rect y="32.8" width="13" height="13" rx="3" fill="#0E1726"></rect><rect y="49.2" width="13" height="13" rx="3" fill="#0E1726"></rect><rect y="65.6" width="13" height="13" rx="3" fill="#0E1726"></rect><rect y="82.0" width="13" height="13" rx="3" fill="#0E1726"></rect><rect y="98.4" width="13" height="13" rx="3" fill="#0D5A6E"></rect></g><g transform="translate(377.2 0)" opacity="0"><animate attributeName="opacity" from="0" to="1" dur="0.45s" begin="0.87s" fill="freeze"/><rect y="0.0" width="13" height="13" rx="3" fill="#0D5A6E"></rect><rect y="16.4" width="13" height="13" rx="3" fill="#0E1726"></rect><rect y="32.8" width="13" height="13" rx="3" fill="#0E1726"></rect><rect y="49.2" width="13" height="13" rx="3" fill="#0E1726"></rect><rect y="65.6" width="13" height="13" rx="3" fill="#0E1726"></rect><rect y="82.0" width="13" height="13" rx="3" fill="#0D5A6E"></rect><rect y="98.4" width="13" height="13" rx="3" fill="#0E1726"></rect></g><g transform="translate(393.6 0)" opacity="0"><animate attributeName="opacity" from="0" to="1" dur="0.45s" begin="0.89s" fill="freeze"/><rect y="0.0" width="13" height="13" rx="3" fill="#0E1726"></rect><rect y="16.4" width="13" height="13" rx="3" fill="#0E1726"></rect><rect y="32.8" width="13" height="13" rx="3" fill="#0E1726"></rect><rect y="49.2" width="13" height="13" rx="3" fill="#0D5A6E"></rect><rect y="65.6" width="13" height="13" rx="3" fill="#0D5A6E"></rect><rect y="82.0" width="13" height="13" rx="3" fill="#0E1726"></rect><rect y="98.4" width="13" height="13" rx="3" fill="#0E1726"></rect></g><g transform="translate(410.0 0)" opacity="0"><animate attributeName="opacity" from="0" to="1" dur="0.45s" begin="0.90s" fill="freeze"/><rect y="0.0" width="13" height="13" rx="3" fill="#0E1726"></rect><rect y="16.4" width="13" height="13" rx="3" fill="#0E1726"></rect><rect y="32.8" width="13" height="13" rx="3" fill="#0E1726"></rect><rect y="49.2" width="13" height="13" rx="3" fill="#0E1726"></rect><rect y="65.6" width="13" height="13" rx="3" fill="#0E1726"></rect><rect y="82.0" width="13" height="13" rx="3" fill="#0E1726"></rect><rect y="98.4" width="13" height="13" rx="3" fill="#0E1726"></rect></g><g transform="translate(426.4 0)" opacity="0"><animate attributeName="opacity" from="0" to="1" dur="0.45s" begin="0.91s" fill="freeze"/><rect y="0.0" width="13" height="13" rx="3" fill="#0E1726"></rect><rect y="16.4" width="13" height="13" rx="3" fill="#0E1726"></rect><rect y="32.8" width="13" height="13" rx="3" fill="#0E1726"></rect><rect y="49.2" width="13" height="13" rx="3" fill="#0E1726"></rect><rect y="65.6" width="13" height="13" rx="3" fill="#0E1726"></rect><rect y="82.0" width="13" height="13" rx="3" fill="#0E1726"></rect><rect y="98.4" width="13" height="13" rx="3" fill="#0E1726"></rect></g><g transform="translate(442.8 0)" opacity="0"><animate attributeName="opacity" from="0" to="1" dur="0.45s" begin="0.93s" fill="freeze"/><rect y="0.0" width="13" height="13" rx="3" fill="#0E1726"></rect><rect y="16.4" width="13" height="13" rx="3" fill="#0E1726"></rect><rect y="32.8" width="13" height="13" rx="3" fill="#0E1726"></rect><rect y="49.2" width="13" height="13" rx="3" fill="#0E1726"></rect><rect y="65.6" width="13" height="13" rx="3" fill="#0E1726"></rect><rect y="82.0" width="13" height="13" rx="3" fill="#0E1726"></rect><rect y="98.4" width="13" height="13" rx="3" fill="#0E1726"></rect></g><g transform="translate(459.2 0)" opacity="0"><animate attributeName="opacity" from="0" to="1" dur="0.45s" begin="0.94s" fill="freeze"/><rect y="0.0" width="13" height="13" rx="3" fill="#0E1726"></rect><rect y="16.4" width="13" height="13" rx="3" fill="#0E1726"></rect><rect y="32.8" width="13" height="13" rx="3" fill="#0E1726"></rect><rect y="49.2" width="13" height="13" rx="3" fill="#0E1726"></rect><rect y="65.6" width="13" height="13" rx="3" fill="#0E1726"></rect><rect y="82.0" width="13" height="13" rx="3" fill="#0E1726"></rect><rect y="98.4" width="13" height="13" rx="3" fill="#0E1726"></rect></g><g transform="translate(475.6 0)" opacity="0"><animate attributeName="opacity" from="0" to="1" dur="0.45s" begin="0.96s" fill="freeze"/><rect y="0.0" width="13" height="13" rx="3" fill="#0E1726"></rect><rect y="16.4" width="13" height="13" rx="3" fill="#0E1726"></rect><rect y="32.8" width="13" height="13" rx="3" fill="#0E1726"></rect><rect y="49.2" width="13" height="13" rx="3" fill="#0E1726"></rect><rect y="65.6" width="13" height="13" rx="3" fill="#0E1726"></rect><rect y="82.0" width="13" height="13" rx="3" fill="#0E1726"></rect><rect y="98.4" width="13" height="13" rx="3" fill="#0E1726"></rect></g><g transform="translate(492.0 0)" opacity="0"><animate attributeName="opacity" from="0" to="1" dur="0.45s" begin="0.97s" fill="freeze"/><rect y="0.0" width="13" height="13" rx="3" fill="#0E1726"></rect><rect y="16.4" width="13" height="13" rx="3" fill="#0E1726"></rect><rect y="32.8" width="13" height="13" rx="3" fill="#0E1726"></rect><rect y="49.2" width="13" height="13" rx="3" fill="#0E1726"></rect><rect y="65.6" width="13" height="13" rx="3" fill="#0E1726"></rect><rect y="82.0" width="13" height="13" rx="3" fill="#0E1726"></rect><rect y="98.4" width="13" height="13" rx="3" fill="#0E1726"></rect></g><g transform="translate(508.4 0)" opacity="0"><animate attributeName="opacity" from="0" to="1" dur="0.45s" begin="0.98s" fill="freeze"/><rect y="0.0" width="13" height="13" rx="3" fill="#0E1726"></rect><rect y="16.4" width="13" height="13" rx="3" fill="#0E1726"></rect><rect y="32.8" width="13" height="13" rx="3" fill="#0E1726"></rect><rect y="49.2" width="13" height="13" rx="3" fill="#0E1726"></rect><rect y="65.6" width="13" height="13" rx="3" fill="#0E1726"></rect><rect y="82.0" width="13" height="13" rx="3" fill="#0E1726"></rect><rect y="98.4" width="13" height="13" rx="3" fill="#0E1726"></rect></g><g transform="translate(524.8 0)" opacity="0"><animate attributeName="opacity" from="0" to="1" dur="0.45s" begin="1.00s" fill="freeze"/><rect y="0.0" width="13" height="13" rx="3" fill="#0E1726"></rect><rect y="16.4" width="13" height="13" rx="3" fill="#0E1726"></rect><rect y="32.8" width="13" height="13" rx="3" fill="#0E1726"></rect><rect y="49.2" width="13" height="13" rx="3" fill="#0E1726"></rect><rect y="65.6" width="13" height="13" rx="3" fill="#0E1726"></rect><rect y="82.0" width="13" height="13" rx="3" fill="#0E1726"></rect><rect y="98.4" width="13" height="13" rx="3" fill="#0E1726"></rect></g><g transform="translate(541.2 0)" opacity="0"><animate attributeName="opacity" from="0" to="1" dur="0.45s" begin="1.01s" fill="freeze"/><rect y="0.0" width="13" height="13" rx="3" fill="#0E1726"></rect><rect y="16.4" width="13" height="13" rx="3" fill="#0E1726"></rect><rect y="32.8" width="13" height="13" rx="3" fill="#009CB6"></rect><rect y="49.2" width="13" height="13" rx="3" fill="#00F2FE"><animate attributeName="opacity" values="1;0.62;1" dur="3.6s" begin="2.0s" repeatCount="indefinite"/></rect><rect y="65.6" width="13" height="13" rx="3" fill="#0E1726"></rect><rect y="82.0" width="13" height="13" rx="3" fill="#0E1726"></rect><rect y="98.4" width="13" height="13" rx="3" fill="#0E1726"></rect></g><g transform="translate(557.6 0)" opacity="0"><animate attributeName="opacity" from="0" to="1" dur="0.45s" begin="1.03s" fill="freeze"/><rect y="0.0" width="13" height="13" rx="3" fill="#0D5A6E"></rect><rect y="16.4" width="13" height="13" rx="3" fill="#0E1726"></rect><rect y="32.8" width="13" height="13" rx="3" fill="#0E1726"></rect><rect y="49.2" width="13" height="13" rx="3" fill="#0E1726"></rect><rect y="65.6" width="13" height="13" rx="3" fill="#0E1726"></rect><rect y="82.0" width="13" height="13" rx="3" fill="#0D5A6E"></rect><rect y="98.4" width="13" height="13" rx="3" fill="#0E1726"></rect></g><g transform="translate(574.0 0)" opacity="0"><animate attributeName="opacity" from="0" to="1" dur="0.45s" begin="1.04s" fill="freeze"/><rect y="0.0" width="13" height="13" rx="3" fill="#0E1726"></rect><rect y="16.4" width="13" height="13" rx="3" fill="#0E1726"></rect><rect y="32.8" width="13" height="13" rx="3" fill="#0E1726"></rect><rect y="49.2" width="13" height="13" rx="3" fill="#0E1726"></rect><rect y="65.6" width="13" height="13" rx="3" fill="#0E1726"></rect><rect y="82.0" width="13" height="13" rx="3" fill="#0E1726"></rect><rect y="98.4" width="13" height="13" rx="3" fill="#0E1726"></rect></g><g transform="translate(590.4 0)" opacity="0"><animate attributeName="opacity" from="0" to="1" dur="0.45s" begin="1.05s" fill="freeze"/><rect y="0.0" width="13" height="13" rx="3" fill="#0E1726"></rect><rect y="16.4" width="13" height="13" rx="3" fill="#0E1726"></rect><rect y="32.8" width="13" height="13" rx="3" fill="#0E1726"></rect><rect y="49.2" width="13" height="13" rx="3" fill="#0E1726"></rect><rect y="65.6" width="13" height="13" rx="3" fill="#0E1726"></rect><rect y="82.0" width="13" height="13" rx="3" fill="#0E1726"></rect><rect y="98.4" width="13" height="13" rx="3" fill="#0E1726"></rect></g><g transform="translate(606.8 0)" opacity="0"><animate attributeName="opacity" from="0" to="1" dur="0.45s" begin="1.07s" fill="freeze"/><rect y="0.0" width="13" height="13" rx="3" fill="#0D5A6E"></rect><rect y="16.4" width="13" height="13" rx="3" fill="#0D5A6E"></rect><rect y="32.8" width="13" height="13" rx="3" fill="#0D5A6E"></rect><rect y="49.2" width="13" height="13" rx="3" fill="#0E1726"></rect><rect y="65.6" width="13" height="13" rx="3" fill="#0E1726"></rect><rect y="82.0" width="13" height="13" rx="3" fill="#0E1726"></rect><rect y="98.4" width="13" height="13" rx="3" fill="#0E1726"></rect></g><g transform="translate(623.2 0)" opacity="0"><animate attributeName="opacity" from="0" to="1" dur="0.45s" begin="1.08s" fill="freeze"/><rect y="0.0" width="13" height="13" rx="3" fill="#009CB6"></rect><rect y="16.4" width="13" height="13" rx="3" fill="#0E1726"></rect><rect y="32.8" width="13" height="13" rx="3" fill="#0E1726"></rect><rect y="49.2" width="13" height="13" rx="3" fill="#0E1726"></rect><rect y="65.6" width="13" height="13" rx="3" fill="#0D5A6E"></rect><rect y="82.0" width="13" height="13" rx="3" fill="#0E1726"></rect><rect y="98.4" width="13" height="13" rx="3" fill="#0D5A6E"></rect></g><g transform="translate(639.6 0)" opacity="0"><animate attributeName="opacity" from="0" to="1" dur="0.45s" begin="1.10s" fill="freeze"/><rect y="0.0" width="13" height="13" rx="3" fill="#009CB6"></rect><rect y="16.4" width="13" height="13" rx="3" fill="#0D5A6E"></rect><rect y="32.8" width="13" height="13" rx="3" fill="#0E1726"></rect><rect y="49.2" width="13" height="13" rx="3" fill="#0E1726"></rect><rect y="65.6" width="13" height="13" rx="3" fill="#0E1726"></rect><rect y="82.0" width="13" height="13" rx="3" fill="#0D5A6E"></rect><rect y="98.4" width="13" height="13" rx="3" fill="#0E1726"></rect></g><g transform="translate(656.0 0)" opacity="0"><animate attributeName="opacity" from="0" to="1" dur="0.45s" begin="1.11s" fill="freeze"/><rect y="0.0" width="13" height="13" rx="3" fill="#0E1726"></rect><rect y="16.4" width="13" height="13" rx="3" fill="#0D5A6E"></rect><rect y="32.8" width="13" height="13" rx="3" fill="#0E1726"></rect><rect y="49.2" width="13" height="13" rx="3" fill="#0E1726"></rect><rect y="65.6" width="13" height="13" rx="3" fill="#0E1726"></rect><rect y="82.0" width="13" height="13" rx="3" fill="#0E1726"></rect><rect y="98.4" width="13" height="13" rx="3" fill="#0E1726"></rect></g><g transform="translate(672.4 0)" opacity="0"><animate attributeName="opacity" from="0" to="1" dur="0.45s" begin="1.12s" fill="freeze"/><rect y="0.0" width="13" height="13" rx="3" fill="#0E1726"></rect><rect y="16.4" width="13" height="13" rx="3" fill="#0D5A6E"></rect><rect y="32.8" width="13" height="13" rx="3" fill="#0D5A6E"></rect><rect y="49.2" width="13" height="13" rx="3" fill="#0E1726"></rect><rect y="65.6" width="13" height="13" rx="3" fill="#0D5A6E"></rect><rect y="82.0" width="13" height="13" rx="3" fill="#0E1726"></rect><rect y="98.4" width="13" height="13" rx="3" fill="#0E1726"></rect></g><g transform="translate(688.8 0)" opacity="0"><animate attributeName="opacity" from="0" to="1" dur="0.45s" begin="1.14s" fill="freeze"/><rect y="0.0" width="13" height="13" rx="3" fill="#009CB6"></rect><rect y="16.4" width="13" height="13" rx="3" fill="#009CB6"></rect><rect y="32.8" width="13" height="13" rx="3" fill="#0D5A6E"></rect><rect y="49.2" width="13" height="13" rx="3" fill="#0D5A6E"></rect><rect y="65.6" width="13" height="13" rx="3" fill="#0D5A6E"></rect><rect y="82.0" width="13" height="13" rx="3" fill="#0D5A6E"></rect><rect y="98.4" width="13" height="13" rx="3" fill="#00F2FE"><animate attributeName="opacity" values="1;0.62;1" dur="3.6s" begin="0.0s" repeatCount="indefinite"/></rect></g><g transform="translate(705.2 0)" opacity="0"><animate attributeName="opacity" from="0" to="1" dur="0.45s" begin="1.15s" fill="freeze"/><rect y="0.0" width="13" height="13" rx="3" fill="#009CB6"></rect><rect y="16.4" width="13" height="13" rx="3" fill="#009CB6"></rect><rect y="32.8" width="13" height="13" rx="3" fill="#0E1726"></rect><rect y="49.2" width="13" height="13" rx="3" fill="#009CB6"></rect><rect y="65.6" width="13" height="13" rx="3" fill="#0D5A6E"></rect><rect y="82.0" width="13" height="13" rx="3" fill="#0E1726"></rect><rect y="98.4" width="13" height="13" rx="3" fill="#0E1726"></rect></g><g transform="translate(721.6 0)" opacity="0"><animate attributeName="opacity" from="0" to="1" dur="0.45s" begin="1.17s" fill="freeze"/><rect y="0.0" width="13" height="13" rx="3" fill="#0D5A6E"></rect><rect y="16.4" width="13" height="13" rx="3" fill="#0D5A6E"></rect><rect y="32.8" width="13" height="13" rx="3" fill="#0D5A6E"></rect><rect y="49.2" width="13" height="13" rx="3" fill="#009CB6"></rect><rect y="65.6" width="13" height="13" rx="3" fill="#009CB6"></rect><rect y="82.0" width="13" height="13" rx="3" fill="#0E1726"></rect><rect y="98.4" width="13" height="13" rx="3" fill="#0E1726"></rect></g><g transform="translate(738.0 0)" opacity="0"><animate attributeName="opacity" from="0" to="1" dur="0.45s" begin="1.18s" fill="freeze"/><rect y="0.0" width="13" height="13" rx="3" fill="#0E1726"></rect><rect y="16.4" width="13" height="13" rx="3" fill="#0D5A6E"></rect><rect y="32.8" width="13" height="13" rx="3" fill="#0D5A6E"></rect><rect y="49.2" width="13" height="13" rx="3" fill="#0D5A6E"></rect><rect y="65.6" width="13" height="13" rx="3" fill="#0D5A6E"></rect><rect y="82.0" width="13" height="13" rx="3" fill="#0D5A6E"></rect><rect y="98.4" width="13" height="13" rx="3" fill="#0D5A6E"></rect></g><g transform="translate(754.4 0)" opacity="0"><animate attributeName="opacity" from="0" to="1" dur="0.45s" begin="1.19s" fill="freeze"/><rect y="0.0" width="13" height="13" rx="3" fill="#00CFE8"></rect><rect y="16.4" width="13" height="13" rx="3" fill="#00CFE8"></rect><rect y="32.8" width="13" height="13" rx="3" fill="#00CFE8"></rect><rect y="49.2" width="13" height="13" rx="3" fill="#009CB6"></rect><rect y="65.6" width="13" height="13" rx="3" fill="#0D5A6E"></rect><rect y="82.0" width="13" height="13" rx="3" fill="#009CB6"></rect><rect y="98.4" width="13" height="13" rx="3" fill="#009CB6"></rect></g><g transform="translate(770.8 0)" opacity="0"><animate attributeName="opacity" from="0" to="1" dur="0.45s" begin="1.21s" fill="freeze"/><rect y="0.0" width="13" height="13" rx="3" fill="#0D5A6E"></rect><rect y="16.4" width="13" height="13" rx="3" fill="#009CB6"></rect><rect y="32.8" width="13" height="13" rx="3" fill="#0D5A6E"></rect><rect y="49.2" width="13" height="13" rx="3" fill="#0D5A6E"></rect><rect y="65.6" width="13" height="13" rx="3" fill="#0D5A6E"></rect><rect y="82.0" width="13" height="13" rx="3" fill="#0E1726"></rect><rect y="98.4" width="13" height="13" rx="3" fill="#0E1726"></rect></g><g transform="translate(787.2 0)" opacity="0"><animate attributeName="opacity" from="0" to="1" dur="0.45s" begin="1.22s" fill="freeze"/><rect y="0.0" width="13" height="13" rx="3" fill="#0D5A6E"></rect><rect y="16.4" width="13" height="13" rx="3" fill="#009CB6"></rect><rect y="32.8" width="13" height="13" rx="3" fill="#0D5A6E"></rect><rect y="49.2" width="13" height="13" rx="3" fill="#0E1726"></rect><rect y="65.6" width="13" height="13" rx="3" fill="#0E1726"></rect><rect y="82.0" width="13" height="13" rx="3" fill="#0E1726"></rect><rect y="98.4" width="13" height="13" rx="3" fill="#0D5A6E"></rect></g><g transform="translate(803.6 0)" opacity="0"><animate attributeName="opacity" from="0" to="1" dur="0.45s" begin="1.24s" fill="freeze"/><rect y="0.0" width="13" height="13" rx="3" fill="#0D5A6E"></rect><rect y="16.4" width="13" height="13" rx="3" fill="#0D5A6E"></rect><rect y="32.8" width="13" height="13" rx="3" fill="#0E1726"></rect><rect y="49.2" width="13" height="13" rx="3" fill="#0D5A6E"></rect><rect y="65.6" width="13" height="13" rx="3" fill="#0E1726"></rect><rect y="82.0" width="13" height="13" rx="3" fill="#0D5A6E"></rect><rect y="98.4" width="13" height="13" rx="3" fill="#0E1726"></rect></g><g transform="translate(820.0 0)" opacity="0"><animate attributeName="opacity" from="0" to="1" dur="0.45s" begin="1.25s" fill="freeze"/><rect y="0.0" width="13" height="13" rx="3" fill="#0E1726"></rect><rect y="16.4" width="13" height="13" rx="3" fill="#0D5A6E"></rect><rect y="32.8" width="13" height="13" rx="3" fill="#0D5A6E"></rect><rect y="49.2" width="13" height="13" rx="3" fill="#0E1726"></rect><rect y="65.6" width="13" height="13" rx="3" fill="#0E1726"></rect><rect y="82.0" width="13" height="13" rx="3" fill="#0E1726"></rect><rect y="98.4" width="13" height="13" rx="3" fill="#0E1726"></rect></g><g transform="translate(836.4 0)" opacity="0"><animate attributeName="opacity" from="0" to="1" dur="0.45s" begin="1.26s" fill="freeze"/><rect y="0.0" width="13" height="13" rx="3" fill="#00CFE8"></rect><rect y="16.4" width="13" height="13" rx="3" fill="#0D5A6E"></rect><rect y="32.8" width="13" height="13" rx="3" fill="#0D5A6E"></rect><rect y="49.2" width="13" height="13" rx="3" fill="#009CB6"></rect><rect y="65.6" width="13" height="13" rx="3" fill="#0D5A6E"></rect><rect y="82.0" width="13" height="13" rx="3" fill="#0D5A6E"></rect><rect y="98.4" width="13" height="13" rx="3" fill="#0E1726"></rect></g><g transform="translate(852.8 0)" opacity="0"><animate attributeName="opacity" from="0" to="1" dur="0.45s" begin="1.28s" fill="freeze"/><rect y="0.0" width="13" height="13" rx="3" fill="#0E1726"></rect><rect y="16.4" width="13" height="13" rx="3" fill="#00F2FE"><animate attributeName="opacity" values="1;0.62;1" dur="3.6s" begin="1.2s" repeatCount="indefinite"/></rect><rect y="32.8" width="13" height="13" rx="3" fill="#0D5A6E"></rect><rect y="49.2" width="13" height="13" rx="3" fill="#0D5A6E"></rect><rect y="65.6" width="13" height="13" rx="3" fill="#0D5A6E"></rect><rect y="82.0" width="13" height="13" rx="3" fill="#0D5A6E"></rect></g>
    </g>

    <text x="988" y="368" font-family="ui-monospace, SFMono-Regular, Menlo, Consolas, monospace" font-size="10.5" letter-spacing="1.2" fill="#4C5B72">LESS</text>
    <rect x="1046.0" y="358" width="12" height="12" rx="3" fill="#0E1726"/><rect x="1063.0" y="358" width="12" height="12" rx="3" fill="#0D5A6E"/><rect x="1080.0" y="358" width="12" height="12" rx="3" fill="#009CB6"/><rect x="1097.0" y="358" width="12" height="12" rx="3" fill="#00CFE8"/><rect x="1114.0" y="358" width="12" height="12" rx="3" fill="#00F2FE"/>
    <text x="1135.0" y="368" font-family="ui-monospace, SFMono-Regular, Menlo, Consolas, monospace" font-size="10.5" letter-spacing="1.2" fill="#4C5B72">MORE</text>

    <rect width="1200" height="392" rx="18" fill="none" stroke="#18243A" stroke-width="1.5"/>
  </g>
</svg>
